<svg xmlns="http://www.w3.org/2000/svg" viewBox="0 0 510.7 574"><title>Asset 3</title><g id="Layer_2" data-name="Layer 2"><g id="Layer_1-2" data-name="Layer 1"><path d="M142.85,72.53,142,74.05l-.29.53v0l-.75,1.28s0,0,0,0L134,87.9l-5.14,8.92h0L45.18,241.69H0L101.23,66.38c.16-.31.33-.61.52-.92A21.72,21.72,0,0,1,120.36,55a19.05,19.05,0,0,1,7.57,1.35A19.92,19.92,0,0,1,134.52,61a44.39,44.39,0,0,1,6,7.49,0,0,0,0,1,0,0Z"/><path d="M189.07,124.79l-.89,1.52-.29.52v0l-.75,1.29s0,0,0,0l-6.93,12-5.14,8.91h0L91.4,293.94H46.22L147.44,118.63c.17-.3.34-.61.53-.91a21.72,21.72,0,0,1,18.61-10.48,19.05,19.05,0,0,1,7.57,1.35,20.06,20.06,0,0,1,6.59,4.63,44.83,44.83,0,0,1,6,7.49,0,0,0,0,1,0,0Z"/><path d="M326.94,369.06a23.4,23.4,0,0,1-3.46,11.82l-1.71,3-7.44,12.89-11.75,20.34L288.07,442.2l-16,27.71L256,497.73l-14.72,25.49-12,20.75-7.85,13.59c-1.27,2.21-2.48,4.49-3.82,6.65-4.24,6.83-12.65,10.51-20.53,9.67-7.33-.78-13.3-5.2-16.91-11.49l-3.33-5.76L168,541.3l-12.93-22.39-15.27-26.46-16.26-28.16-15.47-26.8L94.76,414.41l-9.44-16.36q-2.07-3.57-4.12-7.14l-1.49-2.56a20.23,20.23,0,0,1-2.4-10.29,21.78,21.78,0,0,1,1.15-6.5,36.63,36.63,0,0,1,3.32-6.2l.69-1.2,9.81-17,15.78-27.33L120.71,298l3.51-6.09,9.45-16.36,15-25.93,15.84-27.43,12-20.82,5.4-9.35,3-5.29c.84-1.44,1.58-3,2.55-4.34,4.8-6.75,13.75-9.89,21.76-8.26a21.83,21.83,0,0,1,10.49,5.42,26.16,26.16,0,0,1,4.69,6.47l1.44,2.49,8.83,15.3,14.39,24.92,16.14,28,13.7,23.73,7.43,12.87q2.43,4.22,4.87,8.42l14.69,25.45,13.82,23.94q1.41,2.46,2.84,4.92l1.74,3A19.91,19.91,0,0,1,326.94,369.06Z"/><path d="M510.7,43.55a43.48,43.48,0,0,1-2.33,14.07,37.43,37.43,0,0,1-3.14,6.65q-1.44,2.48-2.86,5l-3.83,6.63-8.08,14L479,109.66l-13.75,23.81-15.13,26.21-15.63,27.07-15.1,26.16L405.84,236.4l-11.13,19.28L387,269.12,383.58,275a50.25,50.25,0,0,1-7,9.8,43.53,43.53,0,0,1-60.23,2.76,35.49,35.49,0,0,1-7-7.81c-1.89-3.1-3.64-6.3-5.46-9.44l-7.44-12.88-12-20.84-14.69-25.43-15.53-26.91L239.63,159,228,138.72l-7-12.12-4.28-7.42-12.53-21.7q-4.9-8.48-9.79-17L187.5,68.68a64,64,0,0,1-5.32-10.75A43.55,43.55,0,0,1,223.51,0H465.92A45.37,45.37,0,0,1,489,5.86,43.9,43.9,0,0,1,510.7,43.55Z"/></g></g></svg>