<svg xmlns="http://www.w3.org/2000/svg" viewBox="0 0 987.44 234.21"><title>Asset 2</title><g id="Layer_2" data-name="Layer 2"><g id="Layer_1-2" data-name="Layer 1"><path d="M126.52,40.28,58.1,154.85H21.93L0,40.28H30.44l15.71,83.64L95.91,40.28Z"/><path d="M139.61,154.85A39.17,39.17,0,0,1,123,151.42,33.52,33.52,0,0,1,110.72,142,34.46,34.46,0,0,1,104,127.93a41,41,0,0,1-.08-17.27,50.62,50.62,0,0,1,7-17.35A59.64,59.64,0,0,1,139.45,69.5a48.18,48.18,0,0,1,18-3.52H162a38.39,38.39,0,0,1,16.62,3.52,34.14,34.14,0,0,1,12.27,9.57,35.09,35.09,0,0,1,6.71,14.24,41.34,41.34,0,0,1,.08,17.35,49.93,49.93,0,0,1-7,17.27A58.28,58.28,0,0,1,178.24,142,59.93,59.93,0,0,1,162,151.42a49.28,49.28,0,0,1-18,3.43Zm15.22-64a19.5,19.5,0,0,0-7.61,1.55,24.31,24.31,0,0,0-6.71,4.26,28.17,28.17,0,0,0-5.24,6.3,23.34,23.34,0,0,0-3,7.69,17.65,17.65,0,0,0-.09,7.37,16,16,0,0,0,2.7,6.13,13.94,13.94,0,0,0,5,4.26,14.58,14.58,0,0,0,6.79,1.56,19.91,19.91,0,0,0,7.69-1.56,23.64,23.64,0,0,0,6.79-4.26,29.57,29.57,0,0,0,5.24-6.13,21.86,21.86,0,0,0,3-7.37,19.38,19.38,0,0,0,.08-7.69,16,16,0,0,0-2.7-6.3,13.85,13.85,0,0,0-5.07-4.26A15.28,15.28,0,0,0,154.83,90.86Z"/><path d="M288.06,26.21h28.15L289.86,154.85h-28l1.47-7.85a47.65,47.65,0,0,1-11.78,5.81,40.72,40.72,0,0,1-12.77,2H234.7A31.19,31.19,0,0,1,220,151.42,29.61,29.61,0,0,1,209.25,142a35.36,35.36,0,0,1-5.65-14.07,46.27,46.27,0,0,1,.33-17.27,57.79,57.79,0,0,1,6.79-17.35,61.56,61.56,0,0,1,11.46-14.24,54,54,0,0,1,14.57-9.57A39,39,0,0,1,252.7,66h4.42a29.69,29.69,0,0,1,21.12,8.18ZM232.9,112.79a15,15,0,0,0-.08,6.79,13.24,13.24,0,0,0,2.7,5.57,14.27,14.27,0,0,0,11.13,5.15,19.19,19.19,0,0,0,7.12-1.39,24.6,24.6,0,0,0,6.46-3.76,23.1,23.1,0,0,0,5-5.57,18.82,18.82,0,0,0,2.7-6.79l1.14-4.75a15.9,15.9,0,0,0-.08-6.63,13.88,13.88,0,0,0-2.7-5.64,13.7,13.7,0,0,0-4.91-3.85,15.25,15.25,0,0,0-6.55-1.39,18.79,18.79,0,0,0-7,1.39,22.75,22.75,0,0,0-6.3,3.85,25.7,25.7,0,0,0-4.91,5.64,21.44,21.44,0,0,0-2.86,6.63Z"/><path d="M385.44,66h28.15l-18.16,88.87H367.11l2-7.85a54,54,0,0,1-12,5.81,39.42,39.42,0,0,1-12.52,2h-4.09a31.56,31.56,0,0,1-14.89-3.43A29.61,29.61,0,0,1,314.82,142a35.22,35.22,0,0,1-5.65-14.07,46.27,46.27,0,0,1,.33-17.27A55.93,55.93,0,0,1,316,93.31a60,60,0,0,1,11.38-14.24,53.65,53.65,0,0,1,14.65-9.57A39.88,39.88,0,0,1,358.27,66h4.09q12.93,0,21.12,8.18Zm-47.3,46.81q-1.31,7.36,2.7,12.44t11.38,5.07a19.19,19.19,0,0,0,7.12-1.39,23.38,23.38,0,0,0,6.38-3.76,25.6,25.6,0,0,0,5-5.57,17.81,17.81,0,0,0,2.78-6.79l.66-4.75a15.2,15.2,0,0,0,.16-6.63,13.62,13.62,0,0,0-2.54-5.64A12.9,12.9,0,0,0,367,91.92a15.28,15.28,0,0,0-6.55-1.39,19.39,19.39,0,0,0-7.12,1.39,22.18,22.18,0,0,0-6.38,3.85,25.44,25.44,0,0,0-4.91,5.64,18.52,18.52,0,0,0-2.7,6.63Z"/><path d="M427.67,86.11h-8.84L422.92,66h8.84L437,40.28h28.31L460.07,66h21.61l-3.77,20.13H456l-6.71,33.06q-1.14,5.56.33,8.19c1,1.74,3.38,2.62,7.2,2.62h16.69l-5.23,24.87H444.52a20.61,20.61,0,0,1-4.5-.49,23.86,23.86,0,0,1-4.17-1.31,25.47,25.47,0,0,1-8.43-5.23,23.31,23.31,0,0,1-5.65-8.19,25.28,25.28,0,0,1-1.8-9.33,17.88,17.88,0,0,1-.08-4.5c.17-1.47.41-3,.74-4.5Z"/><path d="M496.9,66h27.17l-2,9.66a44,44,0,0,1,5-3.6,38,38,0,0,1,6.14-3.11A46.6,46.6,0,0,1,540,66.8a29.14,29.14,0,0,1,6.63-.82h12l-6.06,28.64-4.09-1.47A21.11,21.11,0,0,0,539.62,92,32.5,32.5,0,0,0,530,94.13a28.33,28.33,0,0,0-8.51,5.16,21.74,21.74,0,0,0-5.81,7.93l-9.66,47.63H478.57Z"/><path d="M589.37,154.85a39.17,39.17,0,0,1-16.61-3.43A33.52,33.52,0,0,1,560.48,142a34.46,34.46,0,0,1-6.71-14.07,41,41,0,0,1-.08-17.27,50.62,50.62,0,0,1,7-17.35A59.52,59.52,0,0,1,589.21,69.5a48.18,48.18,0,0,1,18-3.52h4.58a38.39,38.39,0,0,1,16.62,3.52,34.14,34.14,0,0,1,12.27,9.57,35.09,35.09,0,0,1,6.71,14.24,41.34,41.34,0,0,1,.08,17.35,49.93,49.93,0,0,1-7,17.27A58.28,58.28,0,0,1,628,142a59.93,59.93,0,0,1-16.21,9.42,49.28,49.28,0,0,1-18,3.43Zm15.22-64A19.5,19.5,0,0,0,597,92.41a24.31,24.31,0,0,0-6.71,4.26A28.17,28.17,0,0,0,585,103a23.58,23.58,0,0,0-3,7.69,17.81,17.81,0,0,0-.08,7.37,16,16,0,0,0,2.7,6.13,13.94,13.94,0,0,0,5,4.26,14.58,14.58,0,0,0,6.79,1.56,19.91,19.91,0,0,0,7.69-1.56,23.64,23.64,0,0,0,6.79-4.26,29.57,29.57,0,0,0,5.24-6.13,21.86,21.86,0,0,0,3-7.37,19.38,19.38,0,0,0,.08-7.69,16,16,0,0,0-2.7-6.3,13.85,13.85,0,0,0-5.07-4.26A15.28,15.28,0,0,0,604.59,90.86Z"/><path d="M750.91,66l-41.24,44.68,23.08,44.19H698.87l-10.81-20.78-19.31,20.78H634.87l40.92-44.19L652.71,66h33.88l11.13,21.11L717,66Z"/><path d="M837.48,29.57l-.36.62-.12.21h0l-.3.52s0,0,0,0l-2.82,4.89-2.09,3.64h0l-34.1,59.06H779.24l41.27-71.47.21-.37a8.87,8.87,0,0,1,7.59-4.28,7.83,7.83,0,0,1,3.09.55,8.17,8.17,0,0,1,2.68,1.89,18.22,18.22,0,0,1,2.44,3.06h0Z"/><path d="M856.32,50.87l-.36.62-.12.22h0l-.31.53h0l-2.83,4.9-2.09,3.63h0l-34.09,59.05H798.09l41.26-71.47c.07-.12.14-.25.22-.37a8.86,8.86,0,0,1,7.59-4.27,7.38,7.38,0,0,1,5.76,2.44,17.77,17.77,0,0,1,2.44,3.05h0Z"/><path d="M912.53,150.45a9.53,9.53,0,0,1-1.41,4.82l-.7,1.21-3,5.25L902.6,170l-5.92,10.24-6.52,11.3-6.55,11.34-6,10.39-4.88,8.46-3.2,5.54c-.52.9-1,1.83-1.56,2.71A8.91,8.91,0,0,1,859.6,234a9.08,9.08,0,0,1-6.9-4.68l-1.35-2.35-3.61-6.25-5.27-9.13-6.23-10.78-6.62-11.48-6.31-10.93-5.43-9.41L814,162.27l-1.68-2.91-.61-1a8.28,8.28,0,0,1-1-4.2,8.9,8.9,0,0,1,.47-2.65,15.07,15.07,0,0,1,1.36-2.53c.09-.16.18-.32.28-.48l4-6.93,6.44-11.14,5.15-8.93,1.44-2.48,3.85-6.67,6.1-10.57,6.46-11.18,4.9-8.49,2.2-3.81,1.24-2.16c.34-.58.65-1.21,1-1.77A8.88,8.88,0,0,1,864.55,71a8.77,8.77,0,0,1,4.28,2.21,10.73,10.73,0,0,1,1.91,2.63l.59,1,3.6,6.23,5.86,10.17,6.58,11.39L893,114.3l3,5.24,2,3.44,6,10.37,5.63,9.76c.39.67.78,1.34,1.16,2,.24.41.48.82.71,1.23A8.08,8.08,0,0,1,912.53,150.45Z"/><path d="M987.44,17.75a17.76,17.76,0,0,1-1,5.74,15.62,15.62,0,0,1-1.28,2.71l-1.17,2-1.56,2.7-3.29,5.71-4.67,8.07-5.6,9.71L962.75,65.1l-6.37,11-6.16,10.66-5.53,9.58-4.53,7.86L937,109.71l-1.37,2.38a20.57,20.57,0,0,1-2.87,4A17.73,17.73,0,0,1,912.57,120a17.67,17.67,0,0,1-4.37-2.82,14.3,14.3,0,0,1-2.84-3.18c-.78-1.27-1.49-2.57-2.23-3.85l-3-5.25-4.9-8.5-6-10.36-6.33-11-6-10.3-4.76-8.25-2.85-4.94-1.75-3q-2.55-4.43-5.11-8.85l-4-6.91L855.68,28a26.64,26.64,0,0,1-2.17-4.38A17.76,17.76,0,0,1,870.36,0h98.82a18.51,18.51,0,0,1,9.4,2.39A17.9,17.9,0,0,1,987.44,17.75Z"/><path d="M87.62,221.22a2.06,2.06,0,1,1,0,4.12,2.06,2.06,0,0,1,0-4.12Z"/><path d="M102.14,221.22a2.06,2.06,0,1,1,0,4.12,2.06,2.06,0,0,1,0-4.12Z"/><path d="M116.66,221.22a2.06,2.06,0,1,1,0,4.12,2.06,2.06,0,0,1,0-4.12Z"/><path d="M132.62,195.74a2.16,2.16,0,1,1-2.16,2.16A2.06,2.06,0,0,1,132.62,195.74Zm-1.48,8.68h3v20.4h-3Z"/><path d="M147.7,204.42h2.88v3.2a6.57,6.57,0,0,1,5.88-3.64,6.25,6.25,0,0,1,5.6,3.88,7,7,0,0,1,6.36-3.84c3.76,0,6.4,3,6.4,7.24v13.6H172V212.42c0-3.8-1.56-5.76-4.28-5.76-3,0-5,2.64-5,7v11.24H160V212.3c0-3.6-1.56-5.68-4.24-5.68-2.88,0-5.16,2.84-5.16,7.08v11.16H147.7Z"/><path d="M186.94,219.74c0-2.84.92-6.8,13.64-7.4v-.48a4.93,4.93,0,0,0-5.28-5.32c-2.8,0-5,2.32-5,4.24l-2.68-.6c0-2.56,3-6.12,8-6.12,4.48,0,8,2.88,8,8.28v12.48h-2.92v-3.76c-.88,1.8-2.92,4-7.08,4S186.94,222.58,186.94,219.74Zm7.44,2.72a6.54,6.54,0,0,0,6.24-6.2v-1.4c-8.72.2-10.64,2.24-10.72,4.36S191.86,222.46,194.38,222.46Z"/><path d="M231,206.86v-2.44h2.68v19.84c0,6.72-4.44,10-8.84,10a8.45,8.45,0,0,1-8.48-7.11l2.68-.8a6,6,0,0,0,5.88,5.16c3,0,6-2.28,6-7.12v-2a7.69,7.69,0,0,1-6,2.8c-5.48,0-9.4-4.36-9.4-10.6,0-6.48,4.32-10.56,9.6-10.56A7.38,7.38,0,0,1,231,206.86ZM224.9,222.3c3.92,0,6.44-3.64,6.44-7.84,0-4.4-2.64-7.64-6.36-7.64-4,0-6.44,3.32-6.44,7.68C218.54,218.66,221.06,222.3,224.9,222.3Z"/><path d="M248.38,195.74a2.16,2.16,0,1,1-2.16,2.16A2.06,2.06,0,0,1,248.38,195.74Zm-1.48,8.68h3v20.4h-3Z"/><path d="M263.46,204.42h2.88v3.44c0-.08,0-.12.08-.16a7.42,7.42,0,0,1,6.68-3.64c4.12,0,7.44,3.44,7.44,8.68v12.08h-3V212.94c0-3.72-1.8-6.2-5.24-6.2-3.28,0-6,3.28-6,7.12v11h-2.88Z"/><path d="M291.58,214.78c0-6.08,3.76-10.56,9.4-10.56,4.68,0,9,4,8.8,10.68H294.54c0,4.84,2.8,7.64,6.56,7.64a5.71,5.71,0,0,0,5.64-4.76l2.76.6a8.35,8.35,0,0,1-8.4,6.76C295.3,225.14,291.58,220.66,291.58,214.78Zm3.16-2.28h11.84c-.28-3.08-2.36-5.76-5.6-5.76C297.46,206.74,295.22,209.38,294.74,212.5Z"/><path d="M343.34,204.42v2.76a8,8,0,0,1,6.32-3.08c5.6,0,9.12,4.44,9.12,10.56,0,6.28-4.12,10.56-9,10.56a8.35,8.35,0,0,1-6.44-2.88v10.08h-3v-28Zm12.32,10.24c0-4.2-2.32-7.92-6.24-7.92s-6.56,3.72-6.56,7.88c0,4.36,2.64,7.68,6.64,7.68C353.22,222.3,355.66,219.06,355.66,214.66Z"/><path d="M379.5,204c4.88,0,9.2,4.28,9.2,10.56s-3.64,10.6-9.4,10.6c-5.48,0-9.32-4.36-9.32-10.6C370,208.1,374.22,204,379.5,204Zm-.12,2.52c-4.16,0-6.44,3.6-6.44,8,0,4.16,2.36,8,6.36,8s6.44-3.84,6.44-8C385.74,210.06,383.26,206.54,379.38,206.54Z"/><path d="M409,222.54c3.2,0,5.12-1.4,5.12-3.76s-2-3-4.16-3.24l-4.2-.48a5.23,5.23,0,0,1-4.76-5.32c0-2.44,2.52-5.64,7.8-5.64,6.08,0,7.28,4.2,7.28,5.72l-2.56.52c-.16-1.52-1-3.92-4.72-3.92-3.08,0-5,1.72-5,3.24s1,2.48,2.72,2.68l4.24.48c4.44.52,6.32,3.24,6.28,6.08,0,3.12-2.44,6.28-8.08,6.28-6.24,0-8.68-3.84-8.64-6.4l2.72-.68C403.18,220.42,405.06,222.54,409,222.54Z"/><path d="M436.38,222.54c3.2,0,5.12-1.4,5.12-3.76s-2-3-4.16-3.24l-4.2-.48a5.23,5.23,0,0,1-4.76-5.32c0-2.44,2.52-5.64,7.8-5.64,6.08,0,7.28,4.2,7.28,5.72l-2.56.52c-.16-1.52-1-3.92-4.72-3.92-3.08,0-5,1.72-5,3.24s1,2.48,2.72,2.68l4.24.48c4.44.52,6.32,3.24,6.28,6.08,0,3.12-2.44,6.28-8.08,6.28-6.24,0-8.68-3.84-8.64-6.4l2.72-.68C430.54,220.42,432.42,222.54,436.38,222.54Z"/><path d="M458.18,195.74A2.16,2.16,0,1,1,456,197.9,2.06,2.06,0,0,1,458.18,195.74Zm-1.48,8.68h3v20.4h-3Z"/><path d="M473.86,224.82v-28h3V207a8.2,8.2,0,0,1,6.2-3c4.88,0,9,4.28,9,10.56s-3.48,10.6-9.24,10.6a7.73,7.73,0,0,1-6-2.72v2.36ZM489,214.46c0-4.4-2.44-7.64-6.16-7.64-4,0-6.64,3.32-6.64,7.68,0,4.16,2.72,7.8,6.56,7.8S489,218.66,489,214.46Z"/><path d="M506.42,195.74a2.16,2.16,0,1,1-2.16,2.16A2.06,2.06,0,0,1,506.42,195.74Zm-1.48,8.68h3v20.4h-3Z"/><path d="M522.14,195.62H525v29.2H522.1Z"/><path d="M540.46,195.74a2.16,2.16,0,1,1-2.16,2.16A2.06,2.06,0,0,1,540.46,195.74ZM539,204.42h3v20.4h-3Z"/><path d="M569.42,204.42v2.32h-9v10.08c0,3.56,1.12,5.68,3.84,5.68,1.68,0,3.48-1.4,3.88-4.8l2.4.52a6.62,6.62,0,0,1-6.32,6.88c-4.32,0-6.72-3.08-6.68-8.68v-9.68h-3.16v-2.32h3.16v-5.24h2.92l0,5.24Z"/><path d="M584.46,195.74a2.16,2.16,0,1,1-2.16,2.16A2.06,2.06,0,0,1,584.46,195.74ZM583,204.42h3v20.4h-3Z"/><path d="M597.74,214.78c0-6.08,3.76-10.56,9.4-10.56,4.68,0,9,4,8.8,10.68H600.7c0,4.84,2.8,7.64,6.56,7.64a5.71,5.71,0,0,0,5.64-4.76l2.76.6a8.35,8.35,0,0,1-8.4,6.76C601.46,225.14,597.74,220.66,597.74,214.78Zm3.16-2.28h11.84c-.28-3.08-2.36-5.76-5.6-5.76C603.62,206.74,601.38,209.38,600.9,212.5Z"/><path d="M636.26,222.54c3.2,0,5.12-1.4,5.12-3.76s-2-3-4.16-3.24l-4.2-.48a5.23,5.23,0,0,1-4.76-5.32c0-2.44,2.52-5.64,7.8-5.64,6.08,0,7.28,4.2,7.28,5.72l-2.56.52c-.16-1.52-1-3.92-4.72-3.92-3.08,0-5,1.72-5,3.24s1,2.48,2.72,2.68l4.24.48c4.44.52,6.31,3.24,6.28,6.08,0,3.12-2.44,6.28-8.08,6.28-6.24,0-8.68-3.84-8.64-6.4l2.72-.68C630.42,220.42,632.3,222.54,636.26,222.54Z"/></g></g></svg>