<svg xmlns="http://www.w3.org/2000/svg" viewBox="0 0 370.69 543.83"><title>Asset 3</title><g id="Layer_2" data-name="Layer 2"><g id="Layer_1-2" data-name="Layer 1"><path d="M105.14,183l-.63,1.1-.22.37v0l-.54.92h0l-5,8.64-3.7,6.42h0L34.86,304.68H2.34L75.19,178.52l.37-.65A15.65,15.65,0,0,1,89,170.32a13.87,13.87,0,0,1,5.45,1,14.51,14.51,0,0,1,4.74,3.34,32.65,32.65,0,0,1,4.3,5.39h0Z"/><path d="M138.4,220.56l-.63,1.09-.21.38s0,0,0,0L137,223h0l-5,8.64-3.7,6.42h0L68.12,342.29H35.6l72.85-126.16c.12-.22.24-.44.38-.66a15.61,15.61,0,0,1,13.39-7.54,13.68,13.68,0,0,1,5.45,1,14.29,14.29,0,0,1,4.74,3.34,31.61,31.61,0,0,1,4.3,5.39h0Z"/><path d="M237.62,396.35a16.82,16.82,0,0,1-2.49,8.5L233.9,407l-5.35,9.27-8.46,14.64L209.65,449l-11.51,19.94-11.56,20L176,507.29l-8.63,14.93L161.72,532c-.92,1.59-1.79,3.23-2.76,4.79a15.68,15.68,0,0,1-14.77,7A16,16,0,0,1,132,535.47q-1.19-2.07-2.39-4.14l-6.37-11L114,504.18l-11-19-11.7-20.26L80.13,445.59,70.54,429l-6.8-11.77q-1.49-2.56-3-5.14l-1.07-1.84a14.45,14.45,0,0,1-1.73-7.4,15.46,15.46,0,0,1,.83-4.68,26,26,0,0,1,2.39-4.47l.49-.86,7.06-12.22,11.36-19.67,9.1-15.76,2.53-4.38L98.54,329l10.77-18.67,11.4-19.73,8.65-15,3.89-6.73,2.19-3.8c.6-1,1.14-2.15,1.83-3.13a15.65,15.65,0,0,1,23.21-2,18.89,18.89,0,0,1,3.38,4.66l1,1.79,6.36,11,10.36,17.94,11.61,20.11,9.86,17.08,5.35,9.27c1.17,2,2.33,4,3.5,6l10.57,18.32,9.95,17.23,2,3.54,1.26,2.17A14.43,14.43,0,0,1,237.62,396.35Z"/><path d="M369.86,162.1a31.4,31.4,0,0,1-1.67,10.12,26.93,26.93,0,0,1-2.27,4.79l-2.05,3.56-2.76,4.77-5.82,10.08-8.22,14.25-9.9,17.13-10.89,18.87L315,265.15,304.17,284l-9.77,16.91-8,13.87-5.58,9.67-2.43,4.21a36.18,36.18,0,0,1-5.06,7.05,31.35,31.35,0,0,1-43.34,2,25.81,25.81,0,0,1-5-5.62c-1.36-2.24-2.62-4.53-3.92-6.8L215.68,316,207,301l-10.57-18.31-11.18-19.36-10.49-18.17-8.41-14.57-5-8.72q-1.54-2.67-3.08-5.34l-9-15.61-7.05-12.2-4.92-8.53a46.09,46.09,0,0,1-3.84-7.74,31.34,31.34,0,0,1,29.75-41.68H337.63a32.66,32.66,0,0,1,16.6,4.21A31.62,31.62,0,0,1,369.86,162.1Z"/><path d="M62.46,7,28.68,63.51H10.83L0,7H15l7.75,41.29L47.35,7Z"/><path d="M68.92,63.51a19.34,19.34,0,0,1-8.2-1.7,16.56,16.56,0,0,1-6.06-4.65,16.83,16.83,0,0,1-3.31-6.94,20.07,20.07,0,0,1,0-8.53,24.88,24.88,0,0,1,3.43-8.56,29.48,29.48,0,0,1,14.1-11.76,23.81,23.81,0,0,1,8.89-1.74H80a18.94,18.94,0,0,1,8.2,1.74,16.86,16.86,0,0,1,6.06,4.73,17.27,17.27,0,0,1,3.31,7,20.37,20.37,0,0,1,0,8.56,24.5,24.5,0,0,1-3.43,8.53A28.88,28.88,0,0,1,88,57.16a29.68,29.68,0,0,1-8,4.65,24.36,24.36,0,0,1-8.89,1.7Zm7.51-31.59a9.56,9.56,0,0,0-3.75.76,12,12,0,0,0-3.32,2.1,14.2,14.2,0,0,0-2.58,3.11,11.61,11.61,0,0,0-1.5,3.8,8.78,8.78,0,0,0,0,3.64,8,8,0,0,0,1.34,3A6.77,6.77,0,0,0,69,50.46a7.25,7.25,0,0,0,3.35.77,9.89,9.89,0,0,0,3.8-.77,11.54,11.54,0,0,0,3.35-2.1,14.73,14.73,0,0,0,2.59-3,10.69,10.69,0,0,0,1.49-3.64,9.56,9.56,0,0,0,0-3.8,8,8,0,0,0-1.34-3.11,6.83,6.83,0,0,0-2.5-2.1A7.54,7.54,0,0,0,76.43,31.92Z"/><path d="M142.2,0h13.9l-13,63.51H129.27l.73-3.88a23.52,23.52,0,0,1-5.82,2.87,20.07,20.07,0,0,1-6.3,1h-2a15.41,15.41,0,0,1-7.27-1.7,14.65,14.65,0,0,1-5.29-4.65,17.35,17.35,0,0,1-2.79-6.94,23,23,0,0,1,.16-8.53A28.85,28.85,0,0,1,104,33.13a30.17,30.17,0,0,1,5.66-7,26.73,26.73,0,0,1,7.19-4.73,19.26,19.26,0,0,1,7.88-1.74h2.18a14.63,14.63,0,0,1,10.42,4ZM115,42.74a7.49,7.49,0,0,0,0,3.36,6.58,6.58,0,0,0,1.34,2.74,7,7,0,0,0,5.49,2.55,9.41,9.41,0,0,0,3.51-.69,12.34,12.34,0,0,0,3.2-1.86,11.27,11.27,0,0,0,2.46-2.74,9.24,9.24,0,0,0,1.33-3.36l.57-2.34a8,8,0,0,0,0-3.27,6.94,6.94,0,0,0-1.33-2.79,6.8,6.8,0,0,0-2.43-1.9,7.45,7.45,0,0,0-3.23-.69,9.1,9.1,0,0,0-3.47.69,11.26,11.26,0,0,0-3.12,1.9,12.66,12.66,0,0,0-2.42,2.79,10.67,10.67,0,0,0-1.41,3.27Z"/><path d="M190.28,19.63h13.89l-9,43.88h-14l1-3.88a27,27,0,0,1-5.94,2.87,19.52,19.52,0,0,1-6.18,1h-2a15.63,15.63,0,0,1-7.36-1.7,14.73,14.73,0,0,1-5.29-4.65,17.49,17.49,0,0,1-2.79-6.94,22.79,22.79,0,0,1,.17-8.53A27.53,27.53,0,0,1,156,33.13a29.24,29.24,0,0,1,5.61-7,26.62,26.62,0,0,1,7.23-4.73,19.74,19.74,0,0,1,8-1.74h2a14.14,14.14,0,0,1,10.43,4ZM166.93,42.74a7.33,7.33,0,0,0,1.33,6.14,6.74,6.74,0,0,0,5.61,2.51,9.47,9.47,0,0,0,3.52-.69,11.59,11.59,0,0,0,3.15-1.86A12.66,12.66,0,0,0,183,46.1a9,9,0,0,0,1.38-3.36l.32-2.34a7.4,7.4,0,0,0,.08-3.27,6.68,6.68,0,0,0-1.25-2.79,6.38,6.38,0,0,0-2.38-1.9,7.47,7.47,0,0,0-3.24-.69,9.45,9.45,0,0,0-3.51.69,11,11,0,0,0-3.15,1.9,13,13,0,0,0-2.43,2.79,9.37,9.37,0,0,0-1.33,3.27Z"/><path d="M211.12,29.57h-4.36l2-9.94h4.36L215.73,7h14l-2.58,12.68h10.66l-1.85,9.94H225.1l-3.31,16.32c-.38,1.83-.33,3.18.16,4s1.67,1.3,3.55,1.3h8.24l-2.58,12.28H219.44a9.75,9.75,0,0,1-2.22-.25,12.07,12.07,0,0,1-2.06-.64A12.56,12.56,0,0,1,211,60a11.44,11.44,0,0,1-2.79-4,12.5,12.5,0,0,1-.89-4.6,9.2,9.2,0,0,1,0-2.22c.08-.73.21-1.47.37-2.23Z"/><path d="M245.3,19.63h13.41l-1,4.77a23.15,23.15,0,0,1,2.46-1.78,19.54,19.54,0,0,1,3-1.53A23.43,23.43,0,0,1,266.59,20a14.41,14.41,0,0,1,3.27-.41h5.9l-3,14.14-2-.72a10.23,10.23,0,0,0-4.36-.57,16.12,16.12,0,0,0-4.73,1.05,13.75,13.75,0,0,0-4.2,2.55A10.78,10.78,0,0,0,254.59,40l-4.77,23.52H236.25Z"/><path d="M291,63.51a19.34,19.34,0,0,1-8.2-1.7,16.4,16.4,0,0,1-6.06-4.65,17,17,0,0,1-3.32-6.94,20.23,20.23,0,0,1,0-8.53,25.1,25.1,0,0,1,3.44-8.56,29.48,29.48,0,0,1,14.1-11.76,23.75,23.75,0,0,1,8.88-1.74H302a18.94,18.94,0,0,1,8.2,1.74,16.86,16.86,0,0,1,6.06,4.73,17.27,17.27,0,0,1,3.31,7,20.37,20.37,0,0,1,0,8.56,24.69,24.69,0,0,1-3.43,8.53A28.88,28.88,0,0,1,310,57.16a29.68,29.68,0,0,1-8,4.65,24.36,24.36,0,0,1-8.89,1.7Zm7.51-31.59a9.64,9.64,0,0,0-3.76.76,12.13,12.13,0,0,0-3.31,2.1,13.66,13.66,0,0,0-2.58,3.11,11.61,11.61,0,0,0-1.5,3.8,8.78,8.78,0,0,0,0,3.64,8,8,0,0,0,1.33,3,6.88,6.88,0,0,0,2.47,2.1,7.22,7.22,0,0,0,3.35.77,9.92,9.92,0,0,0,3.8-.77,11.68,11.68,0,0,0,3.35-2.1,14.73,14.73,0,0,0,2.59-3,10.69,10.69,0,0,0,1.49-3.64,9.37,9.37,0,0,0,0-3.8,7.85,7.85,0,0,0-1.33-3.11,6.86,6.86,0,0,0-2.51-2.1A7.47,7.47,0,0,0,298.46,31.92Z"/><path d="M370.69,19.63,350.33,41.69l11.4,21.82H345l-5.33-10.26-9.54,10.26H313.41l20.2-21.82L322.22,19.63h16.72l5.5,10.43L354,19.63Z"/><path d="M43.26,96.27a1,1,0,1,1-1,1A1,1,0,0,1,43.26,96.27Z"/><path d="M50.42,96.27a1,1,0,1,1,0,2,1,1,0,0,1,0-2Z"/><path d="M57.59,96.27a1,1,0,1,1-1,1A1,1,0,0,1,57.59,96.27Z"/><path d="M65.47,83.69a1.07,1.07,0,1,1-1.07,1.07A1,1,0,0,1,65.47,83.69ZM64.74,88h1.48V98H64.74Z"/><path d="M72.91,88h1.43v1.57a3.23,3.23,0,0,1,2.9-1.79A3.07,3.07,0,0,1,80,89.67a3.45,3.45,0,0,1,3.14-1.89c1.86,0,3.16,1.48,3.16,3.57v6.71H84.92V91.92c0-1.87-.77-2.84-2.11-2.84s-2.45,1.3-2.45,3.44v5.54H79v-6.2c0-1.77-.77-2.8-2.1-2.8s-2.54,1.4-2.54,3.5v5.5H72.91Z"/><path d="M92.29,95.54c0-1.4.45-3.36,6.73-3.66v-.23A2.43,2.43,0,0,0,96.41,89a2.51,2.51,0,0,0-2.49,2.09l-1.32-.29c0-1.27,1.5-3,3.93-3a3.77,3.77,0,0,1,4,4.08V98H99V96.19a3.63,3.63,0,0,1-3.5,2C93.47,98.18,92.29,96.94,92.29,95.54ZM96,96.88A3.23,3.23,0,0,0,99,93.82v-.69c-4.31.1-5.25,1.1-5.29,2.15S94.71,96.88,96,96.88Z"/><path d="M114.05,89.18V88h1.32v9.79c0,3.32-2.19,4.92-4.37,4.92a4.18,4.18,0,0,1-4.18-3.52l1.32-.39a3,3,0,0,0,2.9,2.54c1.48,0,2.95-1.12,2.95-3.51v-1a3.81,3.81,0,0,1-3,1.38c-2.7,0-4.64-2.15-4.64-5.23s2.14-5.21,4.74-5.21A3.66,3.66,0,0,1,114.05,89.18Zm-3,7.62c1.94,0,3.18-1.8,3.18-3.87s-1.3-3.77-3.14-3.77-3.17,1.64-3.17,3.79S109.13,96.8,111,96.8Z"/><path d="M122.62,83.69a1.07,1.07,0,1,1-1.07,1.07A1,1,0,0,1,122.62,83.69ZM121.89,88h1.48V98h-1.48Z"/><path d="M130.06,88h1.42v1.69s0-.06,0-.08a3.67,3.67,0,0,1,3.3-1.79c2,0,3.67,1.7,3.67,4.28v6H137V92.18c0-1.84-.89-3.06-2.59-3.06a3.31,3.31,0,0,0-3,3.51V98h-1.42Z"/><path d="M143.94,93.09c0-3,1.86-5.21,4.64-5.21,2.31,0,4.42,2,4.35,5.27H145.4c0,2.39,1.39,3.77,3.24,3.77a2.83,2.83,0,0,0,2.79-2.35l1.36.3a4.13,4.13,0,0,1-4.15,3.33C145.78,98.2,143.94,96,143.94,93.09ZM145.5,92h5.85a2.89,2.89,0,0,0-2.77-2.84A3.13,3.13,0,0,0,145.5,92Z"/><path d="M169.49,88v1.36a3.93,3.93,0,0,1,3.12-1.52c2.77,0,4.5,2.19,4.5,5.21s-2,5.21-4.44,5.21a4.12,4.12,0,0,1-3.18-1.42v5H168V88Zm6.08,5c0-2.07-1.14-3.91-3.08-3.91S169.26,91,169.26,93s1.3,3.79,3.27,3.79S175.57,95.2,175.57,93Z"/><path d="M187.34,87.78c2.41,0,4.55,2.11,4.55,5.21s-1.8,5.23-4.64,5.23-4.6-2.15-4.6-5.23S184.74,87.78,187.34,87.78ZM187.28,89c-2.05,0-3.17,1.78-3.17,3.93s1.16,4,3.14,4,3.17-1.9,3.17-4S189.2,89,187.28,89Z"/><path d="M201.92,96.92c1.58,0,2.52-.69,2.52-1.86s-1-1.48-2.05-1.6l-2.07-.23A2.58,2.58,0,0,1,198,90.6c0-1.2,1.24-2.78,3.85-2.78,3,0,3.59,2.07,3.59,2.82l-1.26.26A2.08,2.08,0,0,0,201.82,89c-1.52,0-2.49.85-2.49,1.6a1.32,1.32,0,0,0,1.34,1.32l2.1.24c2.19.26,3.12,1.6,3.09,3s-1.2,3.1-4,3.1c-3.08,0-4.29-1.89-4.27-3.16l1.34-.33C199,95.87,200,96.92,201.92,96.92Z"/><path d="M215.42,96.92c1.58,0,2.53-.69,2.53-1.86s-1-1.48-2-1.6l-2.08-.23a2.59,2.59,0,0,1-2.35-2.63c0-1.2,1.25-2.78,3.85-2.78,3,0,3.6,2.07,3.6,2.82l-1.27.26A2.07,2.07,0,0,0,215.32,89c-1.52,0-2.48.85-2.48,1.6a1.32,1.32,0,0,0,1.34,1.32l2.09.24c2.19.26,3.12,1.6,3.1,3s-1.2,3.1-4,3.1c-3.08,0-4.28-1.89-4.26-3.16l1.34-.33C212.54,95.87,213.47,96.92,215.42,96.92Z"/><path d="M226.18,83.69a1.07,1.07,0,1,1,0,2.13,1.07,1.07,0,0,1,0-2.13ZM225.45,88h1.48V98h-1.48Z"/><path d="M233.92,98V84.22h1.49v5a4,4,0,0,1,3.06-1.48c2.4,0,4.44,2.11,4.44,5.21s-1.72,5.23-4.56,5.23a3.8,3.8,0,0,1-2.94-1.34V98Zm7.49-5.11c0-2.17-1.21-3.77-3-3.77-2,0-3.28,1.64-3.28,3.79s1.34,3.85,3.24,3.85S241.41,95,241.41,92.93Z"/><path d="M250,83.69a1.07,1.07,0,1,1-1.07,1.07A1,1,0,0,1,250,83.69ZM249.27,88h1.48V98h-1.48Z"/><path d="M257.76,83.63h1.4V98h-1.42Z"/><path d="M266.8,83.69a1.07,1.07,0,1,1,0,2.13,1.07,1.07,0,0,1,0-2.13ZM266.07,88h1.48V98h-1.48Z"/><path d="M281.1,88v1.14h-4.46v5c0,1.75.55,2.8,1.89,2.8.83,0,1.72-.69,1.92-2.37l1.18.26a3.27,3.27,0,0,1-3.12,3.39c-2.13,0-3.32-1.52-3.3-4.28V89.12h-1.56V88h1.56V85.39h1.45l0,2.59Z"/><path d="M288.52,83.69a1.07,1.07,0,1,1,0,2.13,1.07,1.07,0,0,1,0-2.13ZM287.79,88h1.48V98h-1.48Z"/><path d="M295.08,93.09c0-3,1.86-5.21,4.64-5.21,2.31,0,4.42,2,4.34,5.27h-7.52c0,2.39,1.38,3.77,3.24,3.77a2.82,2.82,0,0,0,2.78-2.35l1.36.3a4.11,4.11,0,0,1-4.14,3.33C296.92,98.2,295.08,96,295.08,93.09ZM296.64,92h5.84a2.87,2.87,0,0,0-2.76-2.84A3.13,3.13,0,0,0,296.64,92Z"/><path d="M314.09,96.92c1.58,0,2.53-.69,2.53-1.86s-1-1.48-2.05-1.6l-2.08-.23a2.58,2.58,0,0,1-2.34-2.63c0-1.2,1.24-2.78,3.84-2.78,3,0,3.6,2.07,3.6,2.82l-1.27.26A2.07,2.07,0,0,0,314,89c-1.51,0-2.48.85-2.48,1.6a1.32,1.32,0,0,0,1.34,1.32l2.09.24c2.19.26,3.12,1.6,3.1,3s-1.2,3.1-4,3.1c-3.08,0-4.28-1.89-4.26-3.16l1.34-.33C311.21,95.87,312.14,96.92,314.09,96.92Z"/></g></g></svg>